<?xml version="1.0" standalone="no"?><!DOCTYPE svg PUBLIC "-//W3C//DTD SVG 1.1//EN" "http://www.w3.org/Graphics/SVG/1.1/DTD/svg11.dtd"><svg t="1631681281492" class="icon" viewBox="0 0 1365 1024" version="1.1" xmlns="http://www.w3.org/2000/svg" p-id="6953" xmlns:xlink="http://www.w3.org/1999/xlink" width="341.25" height="256"><defs><style type="text/css"></style></defs><path d="M34.133333 68.266667h403.797334c79.598933 0 143.906133 10.786133 192.887466 32.426666 49.015467 21.572267 89.531733 52.565333 121.514667 92.9792 32.017067 40.379733 55.1936 87.381333 69.632 140.970667 14.370133 53.623467 21.572267 110.421333 21.572267 170.427733 0 94.0032-10.717867 166.912-32.085334 218.692267-21.4016 51.8144-51.131733 95.232-89.088 130.218667-38.024533 34.986667-78.848 58.299733-122.436266 69.870933-59.5968 16.042667-113.595733 24.029867-161.9968 24.029867H34.133333V68.266667z m271.803734 199.202133v480.597333h66.594133c56.797867 0 97.211733-6.314667 121.173333-18.909866 24.029867-12.5952 42.837333-34.577067 56.4224-65.979734 13.6192-31.402667 20.411733-82.295467 20.411734-152.712533 0-93.184-15.189333-157.013333-45.602134-191.3856-30.378667-34.4064-80.7936-51.6096-151.210666-51.6096H305.937067zM938.666667 649.864533h127.658666v-128.341333h107.690667v128.341333h128.341333v107.997867h-128.341333v127.658667H1066.325333v-127.658667H938.666667V649.898667z" fill="#000000" p-id="6954"></path></svg>
